<?xml version="1.0" encoding="utf-8"?>
<svg width="200px" height="200px" viewBox="0 0 200 200" version="1.1" xmlns:xlink="http://www.w3.org/1999/xlink" xmlns="http://www.w3.org/2000/svg">
  <defs>
    <linearGradient gradientUnits="objectBoundingBox" x1="0.5" y1="0" x2="0.5" y2="1" id="gradient_1">
      <stop offset="0%" stop-color="#12D533" />
      <stop offset="100%" stop-color="#21B880" />
    </linearGradient>
    <path d="M70 0L70 0L70 44.7222L0 44.7222L0 0L70 0Z" id="path_1" />
    <path d="M0 0L70 0L70 44.7222L0 44.7222L0 0Z" id="path_2" />
    <clipPath id="clip_1">
      <use xlink:href="#path_1" clip-rule="evenodd" fill-rule="evenodd" />
    </clipPath>
    <clipPath id="clip_2">
      <use xlink:href="#path_2" clip-rule="evenodd" fill-rule="evenodd" />
    </clipPath>
  </defs>
  <g id="Group">
    <path d="M0 100C0 44.7715 44.7715 0 100 0C155.228 0 200 44.7715 200 100C200 155.228 155.228 200 100 200C44.7715 200 0 155.228 0 100Z" id="Oval" fill="url(#gradient_1)" fill-rule="evenodd" stroke="none" />
    <g id="Vector Smart Object">
      <path d="M70 0L70 0L70 44.7222L0 44.7222L0 0L70 0Z" id="Vector-Smart-Object" fill="none" stroke="none" transform="translate(65 77.638916)" />
      <g id="Vector_Smart_Object" clip-path="url(#clip_1)" transform="translate(65 77.638916)">
        <g id="Group_66">
          <g id="Mask-Group">
            <path d="M0 0L70 0L70 44.7222L0 44.7222L0 0Z" id="Rectangle_36" fill="none" fill-rule="evenodd" stroke="none" />
            <g clip-path="url(#clip_2)">
              <path d="M69.5275 32.6258L35.9897 0.447222C35.3582 -0.154259 34.3657 -0.154259 33.7342 0.447222L0.462777 32.902C0.165705 33.1866 -0.0012991 33.5809 0.000907018 33.9924C0.00311325 34.4038 0.174336 34.7963 0.474444 35.0778L10.0567 44.275C10.6882 44.8755 11.6811 44.8703 12.3064 44.2633L34.9514 22.1842L57.7831 44.0883C58.4166 44.6838 59.4055 44.6787 60.0328 44.0767L69.5411 34.8075C69.8296 34.525 69.9946 34.1398 70.0001 33.7361C70.0055 33.3155 69.8341 32.9119 69.5275 32.6239" id="Group_65" fill="#FFFFFF" stroke="none" />
            </g>
          </g>
        </g>
      </g>
    </g>
  </g>
</svg>