<?xml version="1.0" encoding="utf-8"?>
<svg width="412px" height="262px" viewBox="0 0 412 262" version="1.1" xmlns:xlink="http://www.w3.org/1999/xlink" xmlns="http://www.w3.org/2000/svg">
  <defs>
    <path d="M412 0L412 0L412 262L0 262L0 0L412 0Z" id="path_1" />
    <path d="M371 0L371 0L371 220L0 220L0 0L371 0Z" id="path_2" />
    <path d="M0 0L371 0L371 220L0 220L0 0Z" id="path_3" />
    <clipPath id="clip_1">
      <use xlink:href="#path_1" clip-rule="evenodd" fill-rule="evenodd" />
    </clipPath>
    <clipPath id="clip_2">
      <use xlink:href="#path_2" clip-rule="evenodd" fill-rule="evenodd" />
    </clipPath>
    <clipPath id="clip_3">
      <use xlink:href="#path_3" clip-rule="evenodd" fill-rule="evenodd" />
    </clipPath>
  </defs>
  <g id="Vector Smart Object-1">
    <path d="M412 0L412 0L412 262L0 262L0 0L412 0Z" id="Vector-Smart-Object-1" fill="none" stroke="none" />
    <g id="Vector Smart Object" clip-path="url(#clip_1)">
      <path d="M371 0L371 0L371 220L0 220L0 0L371 0Z" id="Vector-Smart-Object" fill="none" stroke="none" transform="translate(23.958374 28.125122)" />
      <g id="Group_140" clip-path="url(#clip_2)" transform="translate(23.958374 28.125122)">
        <g id="Mask-Group">
          <path d="M0 0L371 0L371 220L0 220L0 0Z" id="Rectangle_73" fill="none" fill-rule="evenodd" stroke="none" />
          <g clip-path="url(#clip_3)">
            <path d="M362.298 64.221C341.972 75.69 296.932 47.595 297.115 24.99C297.3 2.328 326.593 -3.149 343.198 1.55C363.635 7.321 382.624 52.752 362.298 64.221ZM306.287 219.989L306.29 219.989L306.277 220C306.28 219.996 306.284 219.993 306.287 219.989ZM27.835 219.989L306.287 219.989C329.692 193.911 345.49 164.187 345.73 140.064C346.222 93.059 303.832 71.894 268.093 71.894C209.285 71.894 187.176 61.718 163.731 54.011C147.341 48.6202 135.493 43.3393 126.211 39.2024C111.927 32.8361 103.722 29.1791 94.4 32C70.2172 39.3178 87.1185 66.0563 104.592 93.6997C121.791 120.91 139.545 148.998 119.214 160.302C100.057 170.959 73.0678 159.082 50.265 149.048C33.3334 141.597 18.7097 135.161 11.314 139.721C-14.588 155.706 9.623 200.8 27.835 219.989Z" id="Group_139" fill="#F8F7FF" fill-rule="evenodd" stroke="none" />
          </g>
        </g>
      </g>
    </g>
    <g id="Vector_Smart_Object" transform="translate(-0.0009765625 0.0009765625)" clip-path="url(#clip_1)">
      <path d="M251.762 245.739L250.769 245.567L264.986 166.784L276.019 166.784L276.019 167.803L265.828 167.803L251.762 245.739Z" id="Path_137" fill="#40327A" stroke="none" />
      <path d="M300.275 245.739L286.207 167.803L276.017 167.803L276.017 166.784L287.05 166.784L301.267 245.567L300.275 245.739Z" id="Path_138" fill="#40327A" stroke="none" />
      <g id="Group_141" transform="translate(162.262 103.896)">
        <path d="M23.161 44.727L0 44.727L0.388001 34.971L0.673004 27.448L1.73401 0L21.427 0L22.5 27.448L22.648 31.49L23.161 44.727Z" id="Path_139" fill="#C4B8FF" stroke="none" />
        <path d="M22.647 31.489L0.386002 34.97L0.671005 27.447L22.5 27.447L22.647 31.489Z" id="Path_140" fill="#8B77E8" stroke="none" />
      </g>
      <path d="M170.921 146.149L201.42 146.149L201.42 148.622L170.921 148.622L170.921 146.149Z" id="Rectangle_74" fill="#C4B8FF" fill-rule="evenodd" stroke="none" />
      <path d="M127.46 71.832L220.222 71.832L220.222 131.355L127.46 131.355L127.46 71.832Z" id="Rectangle_75" fill="#CCC2FF" fill-rule="evenodd" stroke="none" />
      <path d="M129.754 74.134L217.93 74.134L217.93 122.32L129.754 122.32L129.754 74.134Z" id="Rectangle_76" fill="#FFFFFF" fill-rule="evenodd" stroke="none" />
      <path d="M153.578 105.635L158.963 117.578L138.063 120.842L135.222 121.289L130.792 121.289L130.792 109.208L153.578 105.635Z" id="Path_141" fill="#F2F0FF" stroke="none" />
      <path d="M162.101 104.307L166.79 103.574C165.524 105.097 164.451 106.448 163.584 107.605L162.089 104.305L162.101 104.307Z" id="Path_142" fill="#F2F0FF" stroke="none" />
      <path d="M216.902 95.742L216.902 108.521L167.725 116.221C171.298 110.922 175.398 105.998 179.962 101.524L216.896 95.753L216.902 95.742Z" id="Path_143" fill="#F2F0FF" stroke="none" />
      <path d="M164.622 121.816L216.742 121.816L216.742 122.835L164.622 122.835L164.622 121.816Z" id="Rectangle_77" fill="#8B77E8" fill-rule="evenodd" stroke="none" />
      <path d="M127.46 130.839L189.359 130.839L189.359 131.858L127.46 131.858L127.46 130.839Z" id="Rectangle_78" fill="#4F37B3" fill-rule="evenodd" stroke="none" />
      <path d="M195.68 130.839L203.222 130.839L203.222 131.858L195.68 131.858L195.68 130.839Z" id="Rectangle_79" fill="#4F37B3" fill-rule="evenodd" stroke="none" />
      <path d="M172.096 126.843C172.096 125.875 172.878 125.091 173.842 125.091C174.806 125.091 175.588 125.875 175.588 126.843C175.588 127.811 174.806 128.595 173.842 128.595C172.878 128.595 172.096 127.811 172.096 126.843Z" id="Ellipse_1" fill="#E9E6FF" fill-rule="evenodd" stroke="none" />
      <path d="M184.204 133.055L185.218 133.015L185.631 143.586L184.617 143.625L184.204 133.055Z" id="Rectangle_80" fill="#4F37B3" fill-rule="evenodd" stroke="none" />
      <path d="M130.781 75.164L130.781 88.779L214.803 75.645L217.861 75.164L130.781 75.164Z" id="Path_144" fill="#F2F0FF" stroke="none" />
      <path d="M171.012 74.134L177.653 74.134L177.653 75.165L171.012 75.165L171.012 74.134Z" id="Rectangle_81" fill="#FFFFFF" fill-rule="evenodd" stroke="none" />
      <path d="M116.564 153.684L117.1 148.623L111.509 148.621L103.967 245.657L106.523 245.657L116.564 153.684ZM353.308 153.684L352.783 148.623L358.362 148.623L365.906 245.657L363.362 245.657L353.308 153.684Z" id="Group_142" fill="#DDD6FF" fill-rule="evenodd" stroke="none" />
      <path d="M101.012 148.623L367.958 148.623L367.958 153.696L101.012 153.696L101.012 148.623Z" id="Rectangle_82" fill="#8B77E8" fill-rule="evenodd" stroke="none" />
      <path d="M207.158 253.262L314.822 253.262L314.822 254.281L207.158 254.281L207.158 253.262Z" id="Rectangle_83" fill="#C4B8FF" fill-rule="evenodd" stroke="none" />
      <path d="M288.328 260.98L355.829 260.98L355.829 261.999L288.328 261.999L288.328 260.98Z" id="Rectangle_84" fill="#C4B8FF" fill-rule="evenodd" stroke="none" />
      <path d="M144.381 260.98L259.986 260.98L259.986 261.999L144.381 261.999L144.381 260.98Z" id="Rectangle_85" fill="#C4B8FF" fill-rule="evenodd" stroke="none" />
      <path d="M130.575 260.98L137.82 260.98L137.82 261.999L130.575 261.999L130.575 260.98Z" id="Rectangle_86" fill="#C4B8FF" fill-rule="evenodd" stroke="none" />
      <path d="M345.173 253.377L377.417 253.377L377.417 254.396L345.173 254.396L345.173 253.377Z" id="Rectangle_87" fill="#C4B8FF" fill-rule="evenodd" stroke="none" />
      <path d="M85.723 253.262L200.21 253.262L200.21 254.281L85.723 254.281L85.723 253.262Z" id="Rectangle_88" fill="#C4B8FF" fill-rule="evenodd" stroke="none" />
      <path d="M28.16 253.262L78.147 253.262L78.147 254.281L28.16 254.281L28.16 253.262Z" id="Rectangle_89" fill="#C4B8FF" fill-rule="evenodd" stroke="none" />
      <path d="M101.012 153.18L173.716 153.18L173.716 154.199L101.012 154.199L101.012 153.18Z" id="Rectangle_90" fill="#40327A" fill-rule="evenodd" stroke="none" />
      <path d="M333.865 153.18L367.969 153.18L367.969 154.199L333.865 154.199L333.865 153.18Z" id="Rectangle_91" fill="#40327A" fill-rule="evenodd" stroke="none" />
      <path d="M324.087 153.18L328.754 153.18L328.754 154.199L324.087 154.199L324.087 153.18Z" id="Rectangle_92" fill="#40327A" fill-rule="evenodd" stroke="none" />
      <g id="Group_144" transform="translate(20.970993 30.606422)">
        <path d="M35.451 170.84C35.451 158.771 0 128.047 0 104.206C0 91.0136 10.1 80.6396 27.281 86.8116C27.281 86.8116 3.526 12.8266 49.005 0.791573C68.322 -4.31543 91.724 15.9416 68.037 42.7486C51.837 61.0936 48.663 79.8386 58.521 75.0746C81.821 63.8186 85.403 91.7586 59.947 127.418C52.553 137.781 35.447 161.405 35.447 170.829L35.447 170.829L35.451 170.84Z" id="Path_147" fill="#C0E6FF" stroke="none" />
        <path d="M57.176 189.751L55.339 199.095L52.121 215.562L18.781 215.562L14.639 194.4L13.726 189.751L57.176 189.751Z" id="Path_148" fill="#FFE159" stroke="none" />
        <path d="M57.176 189.751L55.339 199.095L14.639 194.4L13.726 189.751L57.176 189.751Z" id="Path_149" fill="#FFC359" stroke="none" />
        <path d="M35.953 186.219L34.938 186.219L34.938 141.835C34.938 72.1346 44.112 35.6266 44.203 35.2716L45.184 35.5236C45.093 35.8786 35.942 72.2816 35.942 141.836L35.942 186.22L35.953 186.219Z" id="Path_150" fill="#40327A" stroke="none" />
        <path d="M35.953 134.586L34.938 134.586C34.938 116.07 42.195 101.813 57.107 91.0026L57.7 91.8266C43.061 102.427 35.941 116.427 35.941 134.585L35.953 134.586Z" id="Path_151" fill="#40327A" stroke="none" />
        <g id="Group_143" transform="translate(10.749008 189.23058)">
          <path d="M0 0L32.324 0L32.324 1.019L0 1.019L0 0Z" id="Rectangle_93" fill="#624AC9" fill-rule="evenodd" stroke="none" />
          <path d="M35.542 0L38.406 0L38.406 1.019L35.542 1.019L35.542 0Z" id="Rectangle_94" fill="#624AC9" fill-rule="evenodd" stroke="none" />
          <path d="M41.19 0L49.417 0L49.417 1.019L41.19 1.019L41.19 0Z" id="Rectangle_95" fill="#624AC9" fill-rule="evenodd" stroke="none" />
        </g>
      </g>
      <path d="M406.866 245.659L412 245.659L412 246.678L406.866 246.678L406.866 245.659Z" id="Rectangle_96" fill="#C4B8FF" fill-rule="evenodd" stroke="none" />
      <path d="M0 245.659L401.571 245.659L401.571 246.678L0 246.678L0 245.659Z" id="Rectangle_97" fill="#C4B8FF" fill-rule="evenodd" stroke="none" />
      <path d="M116.655 245.659L160.629 245.659L160.629 246.678L116.655 246.678L116.655 245.659Z" id="Rectangle_98" fill="#40327A" fill-rule="evenodd" stroke="none" />
      <path d="M64.044 245.659L82.231 245.659L82.231 246.678L64.044 246.678L64.044 245.659Z" id="Rectangle_99" fill="#40327A" fill-rule="evenodd" stroke="none" />
      <path d="M54.699 245.659L59.754 245.659L59.754 246.678L54.699 246.678L54.699 245.659Z" id="Rectangle_100" fill="#40327A" fill-rule="evenodd" stroke="none" />
      <path d="M172.244 245.659L203.519 245.659L203.519 246.678L172.244 246.678L172.244 245.659Z" id="Rectangle_101" fill="#40327A" fill-rule="evenodd" stroke="none" />
      <g id="Group_145" transform="translate(212.521 245.659)">
        <path d="M0 0L48.469 0L48.469 1.019L0 1.019L0 0Z" id="Rectangle_102" fill="#40327A" fill-rule="evenodd" stroke="none" />
      </g>
      <g id="Group_146" transform="translate(287.142 245.659)">
        <path d="M0 0L54.129 0L54.129 1.019L0 1.019L0 0Z" id="Rectangle_103" fill="#40327A" fill-rule="evenodd" stroke="none" />
      </g>
      <path d="M348.847 245.659L353.81 245.659L353.81 246.678L348.847 246.678L348.847 245.659Z" id="Rectangle_104" fill="#40327A" fill-rule="evenodd" stroke="none" />
      <g id="Group_147" transform="translate(107.173996 219.54428)">
        <path d="M2.188 0.051712L0.501999 15.5127L2.188 0.051712Z" id="Path_152" fill="#F8F7FF" stroke="none" />
        <path d="M0 15.4567L1.6794 0L2.6893 0.110733L1.0099 15.5674L0 15.4567Z" id="Rectangle_105" fill="#B3A4F5" fill-rule="evenodd" stroke="none" />
      </g>
      <g id="Group_148" transform="translate(109.373 157.75983)">
        <path d="M6.746 0.0581818L0.505005 57.1872L6.746 0.0581818Z" id="Path_153" fill="#F8F7FF" stroke="none" />
        <path d="M0 57.1252L6.20676 0L7.21666 0.110748L1.0099 57.2359L0 57.1252Z" id="Rectangle_106" fill="#B3A4F5" fill-rule="evenodd" stroke="none" />
      </g>
      <g id="Group_149" transform="translate(362.077 202.67273)">
        <path d="M0.496002 0.0442657L0.929993 5.64427L0.496002 0.0442657Z" id="Path_154" fill="#F8F7FF" stroke="none" />
        <path d="M0 0.0792542L1.01294 0L1.44501 5.59418L0.432037 5.67342L0 0.0792542Z" id="Rectangle_107" fill="#B3A4F5" fill-rule="evenodd" stroke="none" />
      </g>
      <g id="Group_150" transform="translate(358.474 156.43573)">
        <path d="M0.505005 0.0312653L3.74499 41.6903L0.505005 0.0312653Z" id="Path_155" fill="#F8F7FF" stroke="none" />
        <path d="M0 0.0792542L1.01294 0L4.23032 41.6587L3.21738 41.7379L0 0.0792542Z" id="Rectangle_108" fill="#B3A4F5" fill-rule="evenodd" stroke="none" />
      </g>
      <path d="M206.485 153.18L318.553 153.18L318.553 154.199L206.485 154.199L206.485 153.18Z" id="Rectangle_109" fill="#40327A" fill-rule="evenodd" stroke="none" />
      <g id="Group_151" transform="translate(157.994 83.604)">
        <path d="M31.696 31.811L12.915 31.811L12.915 30.792L30.692 30.792L30.692 10.775L31.692 10.775L31.696 31.811Z" id="Path_156" fill="#8B77E8" stroke="none" />
        <path d="M22.408 0L24.177 0L24.177 1.019L22.408 1.019L22.408 0Z" id="Rectangle_110" fill="#8B77E8" fill-rule="evenodd" stroke="none" />
        <path d="M1.015 12.138L0 12.138L0 0L18.963 0L18.963 1.008L1.015 1.008L1.015 12.138Z" id="Path_157" fill="#8B77E8" stroke="none" />
      </g>
      <path d="M179.969 101.513C175.404 105.983 171.306 110.906 167.738 116.205L158.964 117.579L153.579 105.647L162.114 104.319L163.609 107.619C164.476 106.462 165.549 105.1 166.815 103.588L179.982 101.527L179.969 101.513Z" id="Path_158" fill="#FF809F" stroke="none" />
      <path d="M162.101 104.307L153.578 105.635L151.501 101.055L159.077 97.608L162.101 104.307Z" id="Path_159" fill="#FF95A9" stroke="none" />
      <path d="M158.962 117.579L167.736 116.205C167.736 116.205 167.713 116.251 167.702 116.251L166.481 118.232L159.262 118.232L158.962 117.568L158.962 117.579Z" id="Path_160" fill="#FF95A9" stroke="none" />
      <path d="M200.586 84.577C193.169 89.5317 186.261 95.2084 179.962 101.524L166.795 103.585C175.246 93.6045 185.065 84.869 195.962 77.638L200.586 84.577Z" id="Path_161" fill="#FF95A9" stroke="none" />
      <path d="M198.704 245.739L197.711 245.567L212.475 163.357L233.515 163.357L248.215 245.564L247.222 245.736L232.674 164.376L213.32 164.376L198.704 245.739Z" id="Path_162" fill="#40327A" stroke="none" />
      <path d="M127.462 118.117L126.462 118.117L126.462 70.817L202.897 70.817L202.897 71.836L127.462 71.836L127.462 118.117Z" id="Path_163" fill="#8B77E8" stroke="none" />
      <g id="Group_158" transform="translate(114.407 31.57)">
        <g id="Group_152" transform="translate(13.453003 0)">
          <path d="M0 0L1.015 0L1.015 4.008L0 4.008L0 0Z" id="Rectangle_111" fill="#CCC2FF" fill-rule="evenodd" stroke="none" />
          <path d="M0 24.013L1.015 24.013L1.015 28.021L0 28.021L0 24.013Z" id="Rectangle_112" fill="#CCC2FF" fill-rule="evenodd" stroke="none" />
        </g>
        <g id="Group_153" transform="translate(6.5460052 1.6315002)">
          <path d="M0 0.5075L0.879013 0L2.88301 3.47103L2.004 3.97853L0 0.5075Z" id="Rectangle_113" fill="#CCC2FF" fill-rule="evenodd" stroke="none" />
          <path d="M11.953 21.2985L12.832 20.791L14.836 24.262L13.957 24.7695L11.953 21.2985Z" id="Rectangle_114" fill="#CCC2FF" fill-rule="evenodd" stroke="none" />
        </g>
        <g id="Group_154" transform="translate(1.6240082 6.5629807)">
          <path d="M0 0.879013L0.507507 0L3.97853 2.004L3.47102 2.88301L0 0.879013Z" id="Rectangle_115" fill="#CCC2FF" fill-rule="evenodd" stroke="none" />
          <path d="M20.716 12.895L21.2235 12.016L24.6945 14.02L24.187 14.899L20.716 12.895Z" id="Rectangle_116" fill="#CCC2FF" fill-rule="evenodd" stroke="none" />
        </g>
        <g id="Group_155" transform="translate(0 13.500999)">
          <path d="M0 0L3.993 0L3.993 1.019L0 1.019L0 0Z" id="Rectangle_117" fill="#CCC2FF" fill-rule="evenodd" stroke="none" />
          <path d="M23.927 0L27.92 0L27.92 1.019L23.927 1.019L23.927 0Z" id="Rectangle_118" fill="#CCC2FF" fill-rule="evenodd" stroke="none" />
        </g>
        <g id="Group_156" transform="translate(1.6119995 6.5970993)">
          <path d="M0 13.9999L3.45839 12.004L3.96773 12.8866L0.509338 14.8825L0 13.9999Z" id="Rectangle_119" fill="#CCC2FF" fill-rule="evenodd" stroke="none" />
          <path d="M20.726 1.9959L24.1844 0L24.6937 0.882568L21.2353 2.87846L20.726 1.9959Z" id="Rectangle_120" fill="#CCC2FF" fill-rule="evenodd" stroke="none" />
        </g>
        <g id="Group_157" transform="translate(6.5330048 1.6299591)">
          <path d="M0 24.259L1.99651 20.801L2.87898 21.3105L0.882477 24.7685L0 24.259Z" id="Rectangle_121" fill="#CCC2FF" fill-rule="evenodd" stroke="none" />
          <path d="M11.967 3.45804L13.9635 0L14.846 0.509499L12.8495 3.96754L11.967 3.45804Z" id="Rectangle_122" fill="#CCC2FF" fill-rule="evenodd" stroke="none" />
        </g>
      </g>
      <path d="M278.322 30.333L277.307 30.333C277.313 22.2557 270.78 15.6997 262.705 15.676L262.705 14.657C270.78 14.6322 277.312 8.07535 277.305 0L278.32 0C278.314 8.0773 284.847 14.6333 292.922 14.657L292.922 15.676C284.847 15.7008 278.315 22.2577 278.322 30.333L278.322 30.333ZM266.65 15.157C272.12 16.6104 276.387 20.8925 277.82 26.368C279.253 20.8925 283.52 16.6105 288.99 15.157C283.52 13.7035 279.253 9.42147 277.82 3.946C276.387 9.42146 272.12 13.7035 266.65 15.157L266.65 15.157Z" id="Path_164" fill="#CCC2FF" fill-rule="evenodd" stroke="none" />
      <path d="M370.913 128.583L369.898 128.583C369.9 123.667 365.924 119.677 361.009 119.663L361.009 118.644C365.924 118.629 369.9 114.639 369.897 109.724L370.912 109.724C370.91 114.64 374.886 118.629 379.801 118.644L379.801 119.663C374.886 119.678 370.91 123.668 370.913 128.583L370.913 128.583ZM364.147 119.159C367.105 120.158 369.423 122.485 370.411 125.446C371.399 122.485 373.717 120.158 376.675 119.159C373.717 118.16 371.399 115.833 370.411 112.872C369.423 115.833 367.104 118.159 364.147 119.157L364.147 119.159Z" id="Path_165" fill="#CCC2FF" fill-rule="evenodd" stroke="none" />
      <path d="M210.125 33.457C207.993 33.4647 206.066 32.186 205.244 30.2179C204.423 28.2499 204.869 25.9809 206.375 24.4704C207.88 22.9599 210.147 22.5059 212.118 23.3205C214.089 24.1351 215.374 26.0575 215.374 28.19C215.374 31.0931 213.026 33.4482 210.124 33.457L210.125 33.457ZM210.125 23.941C208.406 23.9349 206.852 24.9661 206.19 26.5529C205.527 28.1398 205.887 29.9694 207.101 31.1874C208.315 32.4055 210.143 32.7717 211.732 32.1151C213.321 31.4584 214.358 29.9085 214.358 28.189C214.361 25.8479 212.466 23.9473 210.125 23.944L210.125 23.941Z" id="Path_166" fill="#DDD6FF" fill-rule="evenodd" stroke="none" />
      <path d="M15.655 92.272C13.5225 92.2797 11.5957 91.001 10.7744 89.0329C9.95306 87.0649 10.3992 84.7959 11.9046 83.2854C13.4099 81.7749 15.6774 81.3209 17.6483 82.1355C19.6191 82.9501 20.9044 84.8725 20.904 87.005C20.904 89.9081 18.5561 92.2632 15.654 92.272L15.655 92.272ZM15.655 82.756C13.9355 82.7499 12.3819 83.7811 11.7197 85.3679C11.0574 86.9548 11.4172 88.7844 12.6309 90.0024C13.8446 91.2205 15.6729 91.5867 17.2622 90.93C18.8514 90.2734 19.888 88.7235 19.888 87.004C19.8901 85.8791 19.4451 84.7998 18.6512 84.0033C17.8573 83.2069 16.7794 82.7585 15.6547 82.757L15.655 82.756Z" id="Path_167" fill="#DDD6FF" fill-rule="evenodd" stroke="none" />
      <path d="M315.028 178.109C313.582 178.114 312.275 177.247 311.718 175.912C311.161 174.578 311.463 173.039 312.484 172.014C313.505 170.99 315.043 170.681 316.379 171.234C317.716 171.786 318.588 173.09 318.588 174.536C318.589 176.505 316.996 178.103 315.028 178.109L315.028 178.109ZM315.028 171.983C313.994 171.979 313.06 172.599 312.661 173.553C312.263 174.507 312.479 175.607 313.209 176.339C313.938 177.072 315.037 177.292 315.993 176.898C316.949 176.503 317.572 175.571 317.572 174.537C317.573 173.129 316.435 171.987 315.028 171.983L315.028 171.983Z" id="Path_168" fill="#DDD6FF" fill-rule="evenodd" stroke="none" />
      <g id="Group_159" transform="translate(131.6357 25.893303)">
        <path d="M79.1623 155.903L50.9573 212.792L50.9573 212.792C50.6632 213.382 50.5108 214.032 50.5123 214.692L59.0353 214.692L59.0353 215.803L92.0353 155.914L79.1513 155.914L79.1623 155.903Z" id="Path_169" fill="#0249AC" stroke="none" />
        <path d="M50.5123 214.693L50.5123 214.693L45.6173 217.373C45.1087 217.651 44.8524 218.238 44.9934 218.801C45.1344 219.363 45.6374 219.76 46.2173 219.766L59.0423 219.766L59.0423 214.693L50.5073 214.693L50.5123 214.693Z" id="Path_170" fill="#40327A" stroke="none" />
        <path d="M149.185 76.3867C148.744 76.0601 148.345 75.6791 147.998 75.2527L143.856 70.0767C143.078 69.1048 142.717 67.8633 142.854 66.6254C142.991 65.3876 143.614 64.2549 144.586 63.4767L146.297 62.1027L146.297 62.1027C146.868 61.644 147.234 60.9772 147.313 60.2491C147.392 59.521 147.178 58.7913 146.719 58.2207L146.457 57.8887C145.205 56.3132 145.438 54.0262 146.982 52.7357L146.982 52.7357C146.616 52.462 146.283 52.1469 145.989 51.7967L135.538 59.3967C135.42 59.4786 135.309 59.5706 135.207 59.6717C133.396 61.2725 133.127 64.0001 134.591 65.9237C134.614 65.9577 134.637 65.9807 134.659 66.0157L137.979 70.1727L134.157 81.4177L147.496 81.4177L149.207 76.3907L149.185 76.3867Z" id="Path_171" fill="#FF95A9" stroke="none" />
        <path d="M119.097 10.7837L119.154 12.8337L112.639 12.9937L112.114 16.0507L119.226 15.8637L119.158 12.8287L119.124 11.5117L119.101 10.7787L119.097 10.7837Z" id="Path_172" fill="#FFFFFF" stroke="none" />
        <path d="M119.154 12.8337L119.097 10.7837L119.097 10.7837L119.12 11.5167L121.881 5.8167L121.881 5.8167C122.047 5.46709 122.166 5.09726 122.235 4.71669C122.609 2.51722 121.129 0.431313 118.929 0.0576935C116.73 -0.315926 114.644 1.16422 114.27 3.36369L113.083 10.3637L113.083 10.3637L112.638 13.0087L112.638 13.0087L119.153 12.8487L119.154 12.8337Z" id="Path_173" fill="#FF95A9" stroke="none" />
        <path d="M219.96 35.2087C219.066 34.6164 217.973 34.4042 216.923 34.6191C215.872 34.8339 214.95 35.458 214.36 36.3537C214.149 36.6764 213.984 37.0271 213.869 37.3957L213.869 37.3957L212.009 43.4537L212.522 42.9267L212.522 42.9267L211.084 44.3927L215.739 48.9727L215.739 48.9727L217.211 46.7287L217.211 46.7287L221.102 40.8087C222.333 38.9398 221.823 36.4279 219.961 35.1867L219.96 35.2087Z" id="Path_174" fill="#FF95A9" stroke="none" />
        <path d="M131.826 84.0937L149.888 84.0937L149.888 81.4137L131.385 81.4137L132.241 83.9557L131.826 84.0937Z" id="Path_175" fill="#FFFFFF" stroke="none" />
        <path d="M185.696 70.3297L149.835 84.1507C149.573 84.1277 149.322 84.1047 149.059 84.0937L131.842 84.0937L131.294 84.2767L119.587 49.7287L119.287 38.3007L119.8 38.3007L119.732 35.7357L119.232 35.7357L119.198 34.5677L119.698 34.5677L119.226 15.8797L112.118 16.0517L112.631 13.0057L112.631 13.0057L106.431 49.6487L106.431 49.6947C106.302 50.4955 106.31 51.3125 106.454 52.1107L106.454 52.1107L114.589 96.0827L114.589 96.0827C114.646 96.3687 114.703 96.6557 114.783 96.9417C114.806 97.0107 114.829 97.0677 114.851 97.1367L92.4193 142.311L58.7193 144.2L58.7193 144.2C56.9752 144.304 55.3689 145.182 54.3383 146.593L54.3383 146.593L6.3943 212.173L6.3943 212.173C5.85608 212.907 5.56445 213.793 5.56129 214.704L14.0843 214.704L14.0843 216.193L61.8573 155.915L119.169 155.915C121.571 155.913 123.798 154.659 125.045 152.606L125.045 152.606L154.719 103.964C155.469 103.741 156.189 103.429 156.864 103.036L156.864 103.036L192.988 82.2517L192.988 82.2517C193.92 81.7126 194.713 80.9638 195.304 80.0647C195.307 80.0474 195.315 80.0314 195.327 80.0187L214.027 51.5857L208.95 46.5857L185.674 70.3467L185.696 70.3297Z" id="Path_176" fill="#0249AC" stroke="none" />
        <path d="M211.095 44.4037L212.521 42.9377L212.521 42.9377L212.008 43.4647L211.084 44.4037L208.973 46.5677L214.039 51.5677L215.739 48.9917L211.095 44.4037Z" id="Path_177" fill="#FFFFFF" stroke="none" />
        <path d="M5.5573 214.693L5.5573 214.693L0.662292 217.373C0.153732 217.651 -0.102646 218.238 0.0383911 218.801C0.179443 219.363 0.682373 219.76 1.2623 219.766L14.0873 219.766L14.0873 214.693L5.55229 214.693L5.5573 214.693Z" id="Path_178" fill="#40327A" stroke="none" />
        <path d="M146.971 52.7407L146.971 52.7407C145.427 54.0312 145.194 56.3182 146.446 57.8937L146.708 58.2257C147.168 58.7962 147.381 59.526 147.302 60.2542C147.223 60.9824 146.858 61.6492 146.286 62.1077L146.286 62.1077L144.575 63.4817C142.557 65.1057 142.23 68.0558 143.845 70.0817L147.987 75.2577C148.331 75.6869 148.73 76.0683 149.174 76.3917C151.46 78.0784 154.595 78.0127 156.807 76.2317L159.42 74.1317L164.669 69.9067C168.446 66.8563 169.218 61.4042 166.438 57.4247C167.507 56.0776 167.507 54.1717 166.438 52.8247C165.741 51.9445 164.674 51.4371 163.551 51.4507C163.635 50.508 163.354 49.5692 162.764 48.8287L162.479 48.4627L162.479 48.4627L159.41 44.6147L159.41 44.6147L159.239 44.3857C158.975 44.0539 158.654 43.771 158.292 43.5497C156.608 42.351 154.392 42.2047 152.564 43.1717C150.657 42.2741 148.404 42.546 146.764 43.8717C144.377 45.795 143.994 49.2869 145.908 51.6817C145.944 51.7175 145.978 51.7559 146.008 51.7967C146.302 52.1469 146.635 52.462 147.001 52.7357L146.971 52.7407Z" id="Path_179" fill="#40327A" stroke="none" />
        <path d="M119.576 49.7287L131.283 84.2767L131.831 84.0937L132.242 83.9567L131.386 81.4147L120.592 49.5467L120.292 38.2677L119.792 38.2787L119.292 38.3017L119.576 49.7287Z" id="Path_180" fill="#094389" stroke="none" />
        <path d="M119.234 35.7467L119.734 35.7357L120.247 35.7127L120.213 34.5337L119.7 34.5447L119.2 34.5557L119.234 35.7467Z" id="Path_181" fill="#055495" stroke="none" />
      </g>
      <path d="M297.879 161.883L295.837 181.796L295.837 181.796C295.423 185.935 291.942 189.088 287.782 189.09L206.702 189.09C205.231 189.079 203.911 188.187 203.35 186.828C202.79 185.468 203.099 183.905 204.135 182.861C204.814 182.177 205.738 181.793 206.702 181.796L236.915 181.796L239.585 155.836C241.098 140.865 253.69 129.464 268.737 129.441C272.867 129.433 276.952 130.308 280.717 132.006C292.28 137.225 299.199 149.264 297.889 161.882L297.879 161.883Z" id="Path_182" fill="#FF95A9" stroke="none" />
      <path d="M240.179 155.012L239.179 154.875C240.347 145.941 245.493 138.015 253.178 133.312C260.862 128.608 270.262 127.632 278.749 130.656L278.407 131.606C275.303 130.493 272.029 129.928 268.731 129.934C254.292 129.991 242.108 140.69 240.183 155L240.179 155.012Z" id="Path_183" fill="#FFFFFF" stroke="none" />
      <path d="M287.769 190.11L243.545 190.11L243.545 189.091L287.77 189.091C291.773 189.106 295.181 186.18 295.77 182.22L295.816 181.911L297.596 164.597L298.596 164.697L296.736 182.797L296.69 182.797C295.84 187.048 292.102 190.103 287.767 190.091L287.769 190.11Z" id="Path_184" fill="#055495" stroke="none" />
      <path d="M297.879 161.883L295.837 181.796L295.837 181.796C295.423 185.935 291.942 189.088 287.782 189.09L242.769 189.09L245.131 166.108L245.975 157.863C247.488 142.892 260.08 131.491 275.127 131.468C276.999 131.468 278.867 131.644 280.706 131.995C292.269 137.214 299.188 149.253 297.878 161.871L297.879 161.883Z" id="Path_185" fill="#FF809F" stroke="none" />
      <path d="M210.273 158.997L244.103 158.997L244.103 164.379L210.273 164.379C208.866 164.375 207.727 163.232 207.729 161.825L207.729 161.539C207.727 160.132 208.866 158.989 210.273 158.985L210.273 158.997Z" id="Path_186" fill="#FF95A9" stroke="none" />
      <path d="M217.952 163.875L241.947 163.875L241.947 164.894L217.952 164.894L217.952 163.875Z" id="Rectangle_123" fill="#055495" fill-rule="evenodd" stroke="none" />
    </g>
  </g>
</svg>