<svg xmlns="http://www.w3.org/2000/svg" xmlns:xlink="http://www.w3.org/1999/xlink" width="27" height="25" viewBox="0 0 27 25">
  <defs>
    <clipPath id="clip-path">
      <rect id="Rectangle_160" data-name="Rectangle 160" width="27" height="25" transform="translate(0 0.164)" fill="none"/>
    </clipPath>
  </defs>
  <g id="Group_237" data-name="Group 237" transform="translate(0 -0.164)">
    <g id="Group_236" data-name="Group 236" clip-path="url(#clip-path)">
      <path id="Path_252" data-name="Path 252" d="M2.9,0A2.918,2.918,0,0,0,0,2.9v22.26H27.1V9.194a1.466,1.466,0,0,0-1.452-1.452H19.357V2.9a2.918,2.918,0,0,0-2.9-2.9H2.9Zm0,1.936h13.55a.955.955,0,0,1,.968.968V23.228H11.614V19.357H7.743v3.871H1.936V2.9A.955.955,0,0,1,2.9,1.936m.968,3.871H5.807V3.871H3.871Zm3.871,0h3.871V3.871H7.743Zm5.807,0h1.936V3.871H13.55ZM3.871,9.678H5.807V7.743H3.871Zm3.871,0h3.871V7.743H7.743Zm5.807,0h1.936V7.743H13.55Zm5.807,0h5.807v13.55H19.357ZM3.871,13.55H5.807V11.614H3.871Zm3.871,0h3.871V11.614H7.743Zm5.807,0h1.936V11.614H13.55Zm7.743,0h1.936V11.614H21.292ZM3.871,17.421H5.807V15.485H3.871Zm3.871,0h3.871V15.485H7.743Zm5.807,0h1.936V15.485H13.55Zm7.743,0h1.936V15.485H21.292ZM3.871,21.292H5.807V19.357H3.871Zm9.678,0h1.936V19.357H13.55Zm7.743,0h1.936V19.357H21.292Z" fill="#646c7a"/>
    </g>
  </g>
</svg>
