<svg id="Vector_Smart_Object" data-name="Vector Smart Object" xmlns="http://www.w3.org/2000/svg" xmlns:xlink="http://www.w3.org/1999/xlink" width="26" height="21" viewBox="0 0 26 21">
  <defs>
    <clipPath id="clip-path">
      <rect id="Rectangle_6" data-name="Rectangle 6" width="26" height="21" fill="none"/>
    </clipPath>
  </defs>
  <g id="Group_12" data-name="Group 12">
    <g id="Group_11" data-name="Group 11" clip-path="url(#clip-path)">
      <path id="Path_12" data-name="Path 12" d="M2.6,0A2.612,2.612,0,0,0,0,2.625V4.9l1.3.823,1.3.823L13,13.125,23.4,6.588l1.3-.818L26,4.955V2.625A2.612,2.612,0,0,0,23.4,0Zm0,2.625H23.4v1.01L13,10.17,2.6,3.589ZM0,8V18.375A2.612,2.612,0,0,0,2.6,21H23.4A2.612,2.612,0,0,0,26,18.375V8.047L23.4,9.68v8.7H2.6V9.642Z" fill="#646c7a"/>
    </g>
  </g>
</svg>
