<svg id="Vector_Smart_Object" data-name="Vector Smart Object" xmlns="http://www.w3.org/2000/svg" xmlns:xlink="http://www.w3.org/1999/xlink" width="20.455" height="20.455" viewBox="0 0 20.455 20.455">
  <defs>
    <clipPath id="clip-path">
      <rect id="Rectangle_26" data-name="Rectangle 26" width="20.455" height="20.455" fill="none"/>
    </clipPath>
  </defs>
  <g id="Group_48" data-name="Group 48">
    <g id="Group_47" data-name="Group 47" clip-path="url(#clip-path)">
      <path id="Path_67" data-name="Path 67" d="M10.227,0A10.227,10.227,0,1,0,20.455,10.227,10.24,10.24,0,0,0,10.227,0m0,1.7a1.572,1.572,0,0,1,1.079.508A5.534,5.534,0,0,1,12.465,3.95a11.932,11.932,0,0,1,.659,2.016H7.331A11.936,11.936,0,0,1,7.99,3.95,5.535,5.535,0,0,1,9.149,2.212,1.572,1.572,0,0,1,10.227,1.7M6.893,2.38a9.334,9.334,0,0,0-.454.866,13.8,13.8,0,0,0-.877,2.72H2.85A8.521,8.521,0,0,1,6.893,2.38m6.668,0A8.521,8.521,0,0,1,17.6,5.966H14.893a13.8,13.8,0,0,0-.877-2.72,9.346,9.346,0,0,0-.454-.866M2.094,7.671H5.272a20.747,20.747,0,0,0,0,5.114H2.094a8.586,8.586,0,0,1,0-5.114m4.914,0h6.439a18.728,18.728,0,0,1,.19,2.557,18.728,18.728,0,0,1-.19,2.557H7.008a18.728,18.728,0,0,1-.19-2.557,18.728,18.728,0,0,1,.19-2.557m8.175,0h3.178a8.587,8.587,0,0,1,0,5.114H15.183a21.025,21.025,0,0,0,.158-2.557,21.025,21.025,0,0,0-.158-2.557M2.85,14.489H5.562a13.8,13.8,0,0,0,.877,2.72,9.347,9.347,0,0,0,.454.866A8.521,8.521,0,0,1,2.85,14.489m4.481,0h5.793a11.932,11.932,0,0,1-.659,2.016,5.534,5.534,0,0,1-1.159,1.738,1.572,1.572,0,0,1-1.079.508,1.572,1.572,0,0,1-1.079-.508A5.535,5.535,0,0,1,7.99,16.5a11.936,11.936,0,0,1-.659-2.016m7.562,0H17.6a8.521,8.521,0,0,1-4.043,3.586,9.359,9.359,0,0,0,.454-.866,13.8,13.8,0,0,0,.877-2.72" fill="#6e707f"/>
    </g>
  </g>
</svg>
