<svg xmlns="http://www.w3.org/2000/svg" width="26" height="26" viewBox="0 0 26 26">
  <g id="Vector_Smart_Object" data-name="Vector Smart Object" transform="translate(-0.108)">
    <path id="Path_2" data-name="Path 2" d="M13.061,0A13.087,13.087,0,0,0,.628,9H2.763A10.79,10.79,0,0,1,3.83,6.969,1.015,1.015,0,0,0,4.019,7H5.9a18.871,18.871,0,0,0-.5,2H7.472a16.409,16.409,0,0,1,.565-2H18.085a16.319,16.319,0,0,1,.565,2h2.072a18.87,18.87,0,0,0-.5-2H22.1a1.015,1.015,0,0,0,.188-.031A11,11,0,0,1,23.359,9h2.135A13.087,13.087,0,0,0,13.061,0Zm0,2c1.558,0,3,1.152,4.082,3H8.98C10.063,3.152,11.5,2,13.061,2ZM7.535,3.469A12.627,12.627,0,0,0,6.688,5H5.495A11.147,11.147,0,0,1,7.535,3.469Zm11.052,0A11.168,11.168,0,0,1,20.628,5H19.435A12.7,12.7,0,0,0,18.587,3.469ZM.251,10.906A.355.355,0,0,0,.157,11a.213.213,0,0,0-.032.219L1.7,15a.263.263,0,0,0,.251.156h.848A.283.283,0,0,0,3.046,15l.847-1.781c.074-.165.145-.344.22-.531.066.168.141.321.22.5L5.118,15a.267.267,0,0,0,.251.156h.879A.268.268,0,0,0,6.5,15l1.664-3.781A.2.2,0,0,0,8.132,11a.263.263,0,0,0-.22-.094H6.97a.258.258,0,0,0-.251.156l-.754,1.906c-.067.168-.106.3-.157.438-.059-.148-.118-.3-.188-.469L4.8,11.063a.268.268,0,0,0-.251-.156H3.768a.315.315,0,0,0-.282.156l-.848,1.906c-.071.164-.13.324-.188.469-.051-.144-.1-.309-.157-.469L1.6,11.063a.246.246,0,0,0-.251-.156H.377C.33,10.906.29,10.887.251,10.906Zm8.98,0A.51.51,0,0,0,9.105,11a.212.212,0,0,0-.031.219L10.644,15a.263.263,0,0,0,.251.156h.879A.278.278,0,0,0,12.025,15l.847-1.781c.074-.165.145-.344.22-.531.066.168.11.321.188.5L14.1,15a.267.267,0,0,0,.251.156H15.2A.267.267,0,0,0,15.447,15l1.7-3.781A.2.2,0,0,0,17.112,11a.324.324,0,0,0-.251-.094H15.95a.3.3,0,0,0-.282.156l-.722,1.906c-.067.168-.137.3-.188.438-.059-.148-.118-.3-.188-.469l-.785-1.875a.317.317,0,0,0-.283-.156h-.785a.267.267,0,0,0-.251.156l-.848,1.906c-.071.164-.13.324-.188.469-.051-.144-.1-.309-.157-.469l-.691-1.906a.29.29,0,0,0-.283-.156H9.356C9.313,10.906,9.27,10.887,9.231,10.906Zm8.948,0a.357.357,0,0,0-.094.094.221.221,0,0,0-.031.219L19.623,15a.263.263,0,0,0,.251.156h.847A.282.282,0,0,0,20.973,15l.848-1.781c.074-.165.145-.344.22-.531.067.168.141.321.22.5L23.045,15a.267.267,0,0,0,.251.156h.879A.271.271,0,0,0,24.427,15l1.664-3.781A.213.213,0,0,0,26.06,11a.258.258,0,0,0-.22-.094H24.9a.254.254,0,0,0-.251.156l-.754,1.906c-.067.168-.106.3-.157.438-.059-.148-.118-.3-.188-.469l-.816-1.875a.267.267,0,0,0-.251-.156h-.816a.267.267,0,0,0-.251.156l-.847,1.906c-.071.164-.13.324-.188.469-.051-.144-.1-.309-.157-.469l-.691-1.906a.245.245,0,0,0-.251-.156H18.3C18.258,10.906,18.218,10.887,18.179,10.906ZM.628,17a13.088,13.088,0,0,0,24.866,0H23.359a11,11,0,0,1-1.068,2.031A.975.975,0,0,0,22.1,19H20.22a19.015,19.015,0,0,0,.471-2H18.65a15.534,15.534,0,0,1-.565,2H8.038a16.208,16.208,0,0,1-.565-2H5.432A18.891,18.891,0,0,0,5.9,19H4.019a.975.975,0,0,0-.188.031A11.033,11.033,0,0,1,2.763,17Zm4.867,4H6.688a12.672,12.672,0,0,0,.847,1.531A11.172,11.172,0,0,1,5.495,21ZM8.98,21h8.163c-1.083,1.847-2.523,3-4.082,3S10.063,22.847,8.98,21Zm10.455,0h1.193a11.193,11.193,0,0,1-2.041,1.531A12.743,12.743,0,0,0,19.435,21Z" fill="#697180"/>
  </g>
</svg>
